<?xml version="1.0" encoding="utf-8"?>
<svg xmlns="http://www.w3.org/2000/svg" xmlns:xlink="http://www.w3.org/1999/xlink" width="596.6393" height="600.1539"
     viewBox="0 0 596.6393 600.1539">
    <defs>
        <style>
            .a{isolation:isolate;}.b{fill:url(#a);}.aa,.ab,.ad,.af,.c,.j,.l,.v,.z{fill:none;}.c,.j{stroke:#1851d1;}.ab,.af,.c,.j,.l,.v,.z{stroke-linecap:round;stroke-linejoin:round;}.c{stroke-width:0.5996px;}.d,.t{fill:#0c1f72;}.e{fill:#83a6ff;}.f{fill:#21d8a8;}.g,.s{fill:#4e77f6;}.h,.i,.u{fill:#2732bc;}.h{opacity:0.3;}.j,.l,.z{stroke-width:0.5px;}.k{fill:#bf705d;}.ab,.af,.l{stroke:#fff;}.m{fill:#3163d5;}.n{fill:#809bff;}.o,.p,.r{opacity:0.8;}.o{fill:url(#b);}.p{fill:url(#c);}.q{fill:#e19288;}.r{fill:url(#d);}.s,.t,.u{fill-rule:evenodd;}.v{stroke:#4e77f6;stroke-width:2px;}.w{fill:#ffc2d5;}.x{fill:#fff;}.y{fill:#f4a1bb;}.z{stroke:#000;}.aa{stroke:#0c1f72;stroke-miterlimit:10;}.ab{stroke-width:0.4247px;}.ac{opacity:0.2;mix-blend-mode:multiply;}.ae{fill:#ae533b;}.af{stroke-width:0.4px;}.ag{fill:url(#e);}.ah{fill:url(#f);}.ai{fill:url(#g);}.aj{fill:url(#h);}
        </style>
        <linearGradient id="a" x1="517.5515" y1="-256.9104" x2="517.5515" y2="44.9827" gradientUnits="userSpaceOnUse">
            <stop offset="0.0936" stop-color="#2a5bd5"/>
            <stop offset="0.9988" stop-color="#0a1fcf"/>
        </linearGradient>
        <linearGradient id="b" x1="421.3289" y1="198.5307" x2="421.3289" y2="358.5915" gradientUnits="userSpaceOnUse">
            <stop offset="0.3895" stop-color="#fff"/>
            <stop offset="1" stop-color="#6b98f7"/>
        </linearGradient>
        <linearGradient id="c" x1="224.7568" y1="226.6677" x2="224.7568" y2="355.7673" xlink:href="#b"/>
        <linearGradient id="d" x1="298.3197" y1="336.4576" x2="298.3197" y2="410.9115" xlink:href="#b"/>
        <linearGradient id="e" x1="68.2852" y1="376.5291" x2="68.2852" y2="414.3979" xlink:href="#a"/>
        <linearGradient id="f" x1="39.2058" y1="376.5291" x2="39.2058" y2="414.3979" xlink:href="#a"/>
        <linearGradient id="g" x1="33.8403" y1="376.5291" x2="33.8403" y2="414.3979" xlink:href="#a"/>
        <linearGradient id="h" x1="298.3196" y1="581.5693" x2="298.3196" y2="455.5294" gradientUnits="userSpaceOnUse">
            <stop offset="0.0753" stop-color="#3163d6" stop-opacity="0"/>
            <stop offset="0.375" stop-color="#2146ac" stop-opacity="0.4242"/>
            <stop offset="0.6425" stop-color="#16318c" stop-opacity="0.7379"/>
            <stop offset="0.8599" stop-color="#0f2479" stop-opacity="0.93"/>
            <stop offset="1" stop-color="#0c1f72"/>
        </linearGradient>
    </defs>
    <title>Asset 1</title>
    <g class="a">
        <path class="b"
              d="M547.4869,321.15c-1.7734-2.1386-7.3026-1.252-11.59.2608s-5.9367,5.0076-8.91,6.0506a11.7137,11.7137,0,0,0-6.781,7.2507,29.895,29.895,0,0,1-2.1384,4.801,31.6056,31.6056,0,0,0-5.9829,11.5973v-9.583a45.8645,45.8645,0,0,0,3.247-7.8994c.4761-1.68.5251-3.4619,1.2714-5.063a11.0614,11.0614,0,0,1,2.8465-3.6333c2.895-2.5036,5.0075-4.225,5.2422-6.7286s2.3473-4.46,5.6335-6.26,6.6507-5.79,5.2423-10.0151c-1.8615-5.5843-10.51-8.059-15.0615-4.501-1.7368,1.3577-2.8128,3.3669-4.6556,4.5793-2.9733,1.9562-5.3206,5.6334-5.1641,12.91s-1.7213,7.668-1.956,12.9886c-.1922,4.3545,1.94,11.1742,2.7484,13.4537v9.68a57.6942,57.6942,0,0,0-2.6558-8.7628c.0419-2.4208-.1635-6.862-1.188-8.3986-1.1476-1.7214-3.13-2.3476-4.9033-5.6856s-5.5291-7.6679-8.1894-8.3135a4.164,4.164,0,0,0-5.06,5.0792c.73,3.6515,6.6246,6.3637,9.5978,6.9377a6.7025,6.7025,0,0,1,5.6856,5.8942,7.947,7.947,0,0,0,3.6116,5.0131c1.9306,5.0468,3.1012,10.0539,3.1012,13.0349v6.6364c-.791-2.0274-2.5769-4.7923-6.5562-7.7977a11.0277,11.0277,0,0,0-1.7853-1.06,6.84,6.84,0,0,0-3.9448-2.578,14.2048,14.2048,0,0,1-6.6845-2.9212c-2.243-1.6169-5.5291-.2086-5.8421,2.1387s2.3994,3.9123,5.4248,3.5474,4.59-.4176,5.79.4694c1.1364.84,3.6671.8281,5.4393.1164a9.324,9.324,0,0,1,1.2373.7706c4.2324,3.1963,6.8194,6.9476,6.9215,10.035v1.8426h.6059v-1.752a28.9113,28.9113,0,0,1,3.5422-3.8747c1.8324-.42,7.4883-1.7887,8.752-2.9651,1.5127-1.4084,4.3816-1.1475,6.8854-1.4606s4.4858-1.6169,4.6326-3.3384-.6683-2.8689-3.2326-3.86-6.6684.574-8.0768,2.504a10.33,10.33,0,0,1-5.5813,4.0164c-2.0816.72-3.3019,3.4128-3.7582,4.6288a32.064,32.064,0,0,0-3.1633,3.36v-8.458c0-5.0713,2.2068-9.9435,5.21-14.237,1.9722-1.123,7.8829-4.4293,9.4835-4.6458,3.4588-.4671,5.2162-.73,8.0851-3.9642s6.1551-2.66,10.0151-4.4859S549.26,323.2882,547.4869,321.15Z"/>
        <path class="c"
              d="M525.4,302.8669s-8.4366,5.0121-10.8791,14.24c-2.42,9.1421-2.723,12.6667-2.7385,20.1084-.0027,1.2626-.0044.3187-.0054,2.269"/>
        <path class="c"
              d="M519.16,339.4008a62.9034,62.9034,0,0,1,6.24-7.2711c6.8035-6.1745,18.7749-8.9979,18.7749-8.9979"/>
        <path class="c" d="M493.8646,323.3926a31.6275,31.6275,0,0,1,10.2237,10.0151,50.12,50.12,0,0,1,3.98,7.7962"/>
        <path class="c" d="M502.5836,353.69c-4.611-2.0972-12.2008-3.33-12.2008-3.33"/>
        <path class="c" d="M532.5539,353.177s-8.3177,1.559-13.0648,4.7728c-.9894.67-1.8871,1.3553-2.691,2.0243"/>
        <path class="d"
              d="M511.7821,365.6567H498.9113l5.1576,28.3527a3.1574,3.1574,0,0,0,3.1065,2.5923h9.2136a3.1575,3.1575,0,0,0,3.1065-2.5923l5.1576-28.3527Z"/>
        <circle class="e" cx="134.0847" cy="176.0398" r="3.1827"/>
        <circle class="e" cx="332.7465" cy="178.341" r="2.695"/>
        <circle class="e" cx="431.2676" cy="125.1689" r="2.695"/>
        <circle class="e" cx="158.5701" cy="247.9914" r="1.3788"/>
        <circle class="f" cx="244.131" cy="48.927" r="1.3788"/>
        <circle class="e" cx="452.9366" cy="86.0871" r="1.3788"/>
        <circle class="e" cx="289.6351" cy="65.4144" r="1.3788"/>
        <circle class="e" cx="357.7442" cy="47.5479" r="1.3788"/>
        <circle class="e" cx="493.1547" cy="86.0871" r="3.1827"/>
        <circle class="e" cx="212.2993" cy="80.252" r="1.3788"/>
        <circle class="e" cx="162.9088" cy="190.8857" r="1.3788"/>
        <circle class="e" cx="541.3162" cy="235.2576" r="1.3788"/>
        <circle class="e" cx="154.4554" cy="77.0209" r="1.3788"/>
        <circle class="f" cx="107.651" cy="138.3378" r="1.3788"/>
        <circle class="f" cx="428.5721" cy="61.7226" r="1.3788"/>
        <circle class="e" cx="272.6349" cy="105.5477" r="2.9525"/>
        <circle class="e" cx="264.9924" cy="143.4198" r="1.3788"/>
        <circle class="e" cx="459.2668" cy="44.6661" r="1.3788"/>
        <circle class="f" cx="113.5269" cy="245.3953" r="1.3788"/>
        <circle class="f" cx="226.6094" cy="119.2408" r="3.1827"/>
        <circle class="g" cx="193.2446" cy="171.2607" r="3.1827"/>
        <circle class="e" cx="394.1446" cy="70.7836" r="1.3788"/>
        <circle class="f" cx="335.4421" cy="131.8112" r="2.9525"/>
        <circle class="f" cx="366.0809" cy="91.0311" r="1.3788"/>
        <circle class="f" cx="527.5261" cy="210.0364" r="1.3788"/>
        <circle class="g" cx="317.1365" cy="92.9158" r="1.3788"/>
        <circle class="e" cx="229.02" cy="191.467" r="6.7943"/>
        <circle class="f" cx="232.8632" cy="158.0968" r="1.3788"/>
        <circle class="f" cx="436.1646" cy="180.5368" r="1.3788"/>
        <circle class="g" cx="135.5993" cy="112.893" r="1.3788"/>
        <circle class="g" cx="179.2249" cy="131.8112" r="1.3788"/>
        <circle class="g" cx="531.367" cy="127.8645" r="1.3788"/>
        <circle class="g" cx="521.0676" cy="265.4398" r="1.3788"/>
        <circle class="g" cx="82.3939" cy="187.2298" r="1.3788"/>
        <circle class="g" cx="388.5664" cy="138.3378" r="3.1827"/>
        <circle class="g" cx="295.1852" cy="166.5899" r="3.2947"/>
        <circle class="f" cx="501.0927" cy="175.0456" r="3.2947"/>
        <circle class="g" cx="275.588" cy="194.5884" r="1.3788"/>
        <circle class="g" cx="545.1218" cy="168.6782" r="1.3788"/>
        <circle class="g" cx="104.3677" cy="209.2036" r="3.1827"/>
        <ellipse class="h" cx="92.044" cy="439.3716" rx="71.47" ry="5.4011"/>
        <ellipse class="h" cx="525.1537" cy="432.8478" rx="61.0991" ry="5.4011"/>
        <path class="i"
              d="M504.8,432.8478h40.3223l.82-6.36-15.41-5.0417a38.1277,38.1277,0,0,0-17.1047-1.527l-.0828.0115-3.1927-18.2252a34.8878,34.8878,0,0,0-11.2628-20.1231H482.8468l13.5135,44.989A8.8118,8.8118,0,0,0,504.8,432.8478Z"/>
        <path class="i"
              d="M474.9492,381.5821l-.1676,14.0452a52.1657,52.1657,0,0,0,4.1023,20.9088l4.62,10.9441a8.7831,8.7831,0,0,0,8.0919,5.3676h14.0318l-16.65-51.2657Z"/>
        <path class="j"
              d="M503.3659,432.7309a8.8131,8.8131,0,0,1-7.0056-6.16l-9.3922-31.2683a6.7834,6.7834,0,0,0-2.7926-3.771,6.5706,6.5706,0,0,1-1.5777-1.3626"/>
        <circle class="d" cx="531.2862" cy="397.6926" r="5.1847"/>
        <path class="k"
              d="M521.7505,376.5989l-4.199,5.1386,10.8943,5.7458c.5845.3078.7976,1.31.9313,1.886a4.9661,4.9661,0,0,1,.2107,1.5566,6.7591,6.7591,0,0,1-.6434,1.61c-.0595.1482-.11.3384.0039.45a.3152.3152,0,0,0,.1808.0768,1.0068,1.0068,0,0,0,.8765-.46c.21-.2747.3494-.6.5713-.8654a3.1247,3.1247,0,0,1,.8021-.6321.9847.9847,0,0,1,.4086-.1674c.6664-.0606,1.185,1.4982,1.3991,1.9682a4.58,4.58,0,0,1-.1145,2.9829,2.4479,2.4479,0,0,0-.0955,1.3328.2729.2729,0,0,0,.0827.1371c.1275.0968.298-.0432.3928-.1722a11.29,11.29,0,0,0,.7394-1.1474,3.0336,3.0336,0,0,0,.4509-1.2662,20.7424,20.7424,0,0,0-.1691-2.4571c-.0071-.12.0265-.9525-.0933-1.0293l-1.0655-.6827-1.0575-6.2914Z"/>
        <path class="k"
              d="M534.2289,394.72c-.0394-.1009-.08-.2027-.1231-.2967l-.8467-2.3538-2.1851-5.2926,1.1831-2.4642c2.3032,1.2412,3.8808,3.6755,5.0582,5.91a4.3315,4.3315,0,0,1,.3522,1.8928,2.001,2.001,0,0,1-.0321.55,1.005,1.005,0,0,1-.2261.4272.1532.1532,0,0,1-.0986.0613.151.151,0,0,1-.102-.05c-.3658-.33-.3429-.8051-.4205-1.2487a6.91,6.91,0,0,1-.2481-.9794,3.44,3.44,0,0,1-.1893,3.1706,7.7683,7.7683,0,0,1-2.1592,1.992Z"/>
        <path class="j" d="M534.1916,396.04l.7851-1.89a.93.93,0,0,0,.0459-.5723l-.4668-1.9608"/>
        <line class="j" x1="536.8512" y1="392.5079" x2="536.5401" y2="390.8769"/>
        <path class="j" d="M535.5735,394.9417l.4822-1.83a.7877.7877,0,0,0-.0046-.4183l-.4672-1.6249"/>
        <line class="l" x1="37.6151" y1="439.3716" x2="72.2603" y2="331.1411"/>
        <line class="l" x1="90.9333" y1="439.3716" x2="125.5786" y2="331.1411"/>
        <line class="l" x1="40.1331" y1="431.5055" x2="93.4513" y2="431.5055"/>
        <line class="l" x1="45.4876" y1="414.7781" x2="98.8059" y2="414.7781"/>
        <line class="l" x1="50.8422" y1="398.0507" x2="104.1604" y2="398.0507"/>
        <line class="l" x1="56.1967" y1="381.3233" x2="109.5149" y2="381.3233"/>
        <line class="l" x1="61.5512" y1="364.5959" x2="114.8695" y2="364.5959"/>
        <line class="l" x1="66.9058" y1="347.8685" x2="120.224" y2="347.8685"/>
        <line class="l" x1="72.2603" y1="331.1411" x2="125.5786" y2="331.1411"/>
        <line class="l" x1="160.2238" y1="439.3716" x2="125.5786" y2="331.1411"/>
        <line class="l" x1="106.9056" y1="439.3716" x2="72.2603" y2="331.1411"/>
        <polygon class="m"
                 points="137.372 211.22 298.32 211.22 459.267 211.22 459.267 410.03 298.32 410.03 137.372 410.03 137.372 211.22"/>
        <rect class="d" x="63.4156" y="505.8106" width="469.8082" height="12.2149"/>
        <polygon class="i"
                 points="459.267 410.03 298.32 410.03 137.372 410.03 63.416 505.811 298.32 505.811 533.224 505.811 459.267 410.03"/>
        <polygon class="n"
                 points="137.372 211.22 298.32 211.22 459.267 211.22 459.267 410.03 298.32 410.03 137.372 410.03 137.372 211.22"/>
        <line class="l" x1="193.2581" y1="424.6214" x2="141.8344" y2="491.2194"/>
        <line class="l" x1="235.2828" y1="424.6214" x2="204.4285" y2="491.2194"/>
        <line class="l" x1="277.3074" y1="424.6214" x2="267.0227" y2="491.2194"/>
        <line class="l" x1="319.332" y1="424.6214" x2="329.6168" y2="491.2194"/>
        <line class="l" x1="361.3567" y1="424.6214" x2="392.2109" y2="491.2194"/>
        <line class="l" x1="403.3813" y1="424.6214" x2="454.805" y2="491.2194"/>
        <line class="l" x1="104.109" y1="481.0642" x2="483.0692" y2="481.0642"/>
        <line class="l" x1="116.9751" y1="468.5473" x2="470.2032" y2="468.5473"/>
        <line class="l" x1="129.8412" y1="456.0304" x2="457.3371" y2="456.0304"/>
        <line class="l" x1="142.7072" y1="443.5135" x2="444.471" y2="443.5135"/>
        <line class="l" x1="155.5733" y1="430.9966" x2="431.605" y2="430.9966"/>
        <polygon class="d"
                 points="143.295 217.84 298.32 217.84 453.345 217.84 453.345 403.41 298.32 403.41 143.295 403.41 143.295 217.84"/>
        <rect class="o" x="337.3462" y="190.8857" width="167.9653" height="122.0069" rx="11.0729"/>
        <rect class="i" x="347.3653" y="275.4103" width="19.2304" height="31.2699"/>
        <rect class="i" x="379.5395" y="207.442" width="19.2304" height="99.2382"/>
        <rect class="i" x="411.7137" y="246.8637" width="19.2304" height="59.8166"/>
        <rect class="i" x="443.8879" y="222.0552" width="19.2304" height="84.6251"/>
        <rect class="i" x="476.0621" y="262.4964" width="19.2304" height="44.1839"/>
        <rect class="p" x="124.0918" y="225.786" width="201.3301" height="87.1066" rx="11.0441"/>
        <polyline class="q" points="133.422 273.959 140.561 272.215 140.561 265.768 135.599 265.44"/>
        <line class="j" x1="136.6408" y1="267.4012" x2="138.5415" y2="267.4012"/>
        <line class="j" x1="136.2853" y1="270.5733" x2="138.186" y2="270.5733"/>
        <line class="j" x1="136.2964" y1="268.9872" x2="138.1749" y2="268.9872"/>
        <rect class="r" x="151.7295" y="322.0784" width="293.1803" height="73.7123" rx="8.5418"/>
        <path class="s"
              d="M175.3409,234.4955V272.215H213.452a37.482,37.482,0,0,0-11.2874-26.5545,39.3549,39.3549,0,0,0-26.8237-11.1658Z"/>
        <path class="t"
              d="M213.4512,272.215h-38.11l-26.5736,23.0805a28.9316,28.9316,0,0,0,10.5562,7.4469,37.95,37.95,0,0,0,16.04,3.4664,38.7949,38.7949,0,0,0,38.089-33.9935Z"/>
        <path class="u"
              d="M171.63,270.374v-37.72a37.462,37.462,0,0,0-23.5623,11.6625,36.3759,36.3759,0,0,0-10.7875,26.057,34.29,34.29,0,0,0,2.514,13.4,36.2384,36.2384,0,0,0,5.2622,9.6809Z"/>
        <circle class="d" cx="245.9184" cy="249.3473" r="14.8526"/>
        <path class="g" d="M257.1963,258.9967a14.8412,14.8412,0,0,0-11.2777-24.5021v14.8527Z"/>
        <path class="i"
              d="M245.9186,264.2a14.81,14.81,0,0,0,11.2777-5.2032l-11.2777-9.6494-12.101-8.5922A14.8374,14.8374,0,0,0,245.9186,264.2Z"/>
        <path class="g" d="M245.9186,291.3562V276.5036a14.8505,14.8505,0,0,0-8.3735,27.1168l8.3735-12.2642Z"/>
        <path class="d" d="M260.7712,291.3562h0a14.8526,14.8526,0,0,0-14.8526-14.8526v14.8526Z"/>
        <path class="i" d="M260.7712,291.3563H245.9186L237.5451,303.62a14.8492,14.8492,0,0,0,23.2261-12.2641Z"/>
        <path class="g"
              d="M304.8713,244.5139a14.835,14.835,0,0,0-26.207-3.66l12.1746,8.4934S300.1042,246.0621,304.8713,244.5139Z"/>
        <path class="i" d="M280.9585,260.4149l9.88-11.0676-12.1746-8.4934a14.8053,14.8053,0,0,0,2.2942,19.561Z"/>
        <path class="d"
              d="M280.9585,260.4149a14.8292,14.8292,0,0,0,23.9128-15.901c-4.7671,1.5482-14.0324,4.8334-14.0324,4.8334Z"/>
        <path class="i"
              d="M290.8389,291.3561l-1.2038,14.7919c.3982.032.7976.0608,1.2038.0608a14.8276,14.8276,0,0,0,13.3179-21.3972Z"/>
        <path class="g"
              d="M290.8389,276.5035a14.845,14.845,0,0,0-13.0007,7.6752l13.0007,7.1774,13.3179-6.5445A14.8388,14.8388,0,0,0,290.8389,276.5035Z"/>
        <path class="d" d="M277.8382,284.1787a14.8387,14.8387,0,0,0,11.7969,21.9693l1.2038-14.7919Z"/>
        <polyline class="v"
                  points="168.657 382.026 204.374 353.891 225.848 380.451 268.999 364.801 317.449 359.035 355.076 375.088 393.24 364.801 421.329 341.724"/>
        <circle class="d" cx="204.3738" cy="353.8913" r="5.1434"/>
        <circle class="d" cx="225.8483" cy="378.959" r="5.1434"/>
        <circle class="d" cx="268.9986" cy="364.8011" r="5.1434"/>
        <circle class="d" cx="317.4491" cy="359.6577" r="5.1434"/>
        <circle class="d" cx="355.0757" cy="375.0878" r="5.1434"/>
        <circle class="d" cx="393.2397" cy="364.8011" r="5.1434"/>
        <circle class="d" cx="168.6574" cy="382.0262" r="5.1434"/>
        <circle class="v" cx="425.285" cy="338.4024" r="5.1434"/>
        <rect class="g" x="347.3653" y="291.0453" width="19.2304" height="15.635"/>
        <rect class="g" x="379.5395" y="275.4103" width="19.2304" height="31.2699"/>
        <rect class="g" x="411.7137" y="284.5883" width="19.2304" height="22.092"/>
        <rect class="g" x="443.8879" y="266.9424" width="19.2304" height="39.7379"/>
        <rect class="g" x="476.0621" y="294.3439" width="19.2304" height="12.3364"/>
        <path class="w"
              d="M397.8977,205.9786l3.9286-10.29-6.6853-1.1-.6823,7.105c-.196,1.2041-1.2548,2.0064-2.156,2.8288s-2.0107,1.7048-1.9355,2.9225c1.4981,0,1.99-.0758,2.646.4684.92.763.2418,2.1449-.1692,3.0258a12.7794,12.7794,0,0,1-1.0606,2.1035c-.2239.3087-.6353,1.1638.1923.9848a1.2925,1.2925,0,0,0,.5938-.3983l1.2795-1.2634q-.3517.8157-.7033,1.6314c-.1154.2676-.1819.6665.0892.7734.204.08.4112-.097.5591-.2588l1.0837-1.1853c-.0785.1528-.6216,1.2121-.5017,1.2972.3263.2317,1.181-.6713,1.3621-.8581a7.41,7.41,0,0,0,2.3642-3.8069,10.9547,10.9547,0,0,0-.1883-2.8636A6.2789,6.2789,0,0,1,397.8977,205.9786Z"/>
        <line class="j" x1="394.4587" y1="213.9889" x2="396.3752" y2="210.9577"/>
        <line class="j" x1="393.3861" y1="213.0767" x2="395.3648" y2="210.0364"/>
        <path class="w"
              d="M376.4514,205.9786l-5.5535-10.4007,7.6192-1.3853c.356,1.9444.624,3.9051,1.0415,5.838a11.4688,11.4688,0,0,0,.6807,2.5953,7.4616,7.4616,0,0,0,1.807,1.8963c.9011.8223,2.0107,1.7048,1.9356,2.9225-1.4982,0-1.99-.0758-2.646.4684-.92.763-.2419,2.1449.1692,3.0258a12.7794,12.7794,0,0,0,1.0606,2.1035c.2239.3087.6353,1.1638-.1923.9848a1.292,1.292,0,0,1-.5938-.3983l-1.28-1.2634q.3518.8157.7032,1.6314c.1154.2676.182.6665-.0891.7734-.204.08-.4112-.097-.5591-.2588l-1.0837-1.1853c.0784.1528.6215,1.2121.5017,1.2972-.3263.2317-1.181-.6713-1.3621-.8581a7.41,7.41,0,0,1-2.3642-3.8069,10.9546,10.9546,0,0,1,.1882-2.8636A6.2693,6.2693,0,0,0,376.4514,205.9786Z"/>
        <line class="j" x1="379.8904" y1="213.9889" x2="377.9739" y2="210.9577"/>
        <line class="j" x1="380.963" y1="213.0767" x2="378.9843" y2="210.0364"/>
        <path class="w"
              d="M491.4119,127.5411l-5.8933,8.0133L492.81,137.57h0a17.7573,17.7573,0,0,1,9.2659-9.5512l1.8088-.7872-.6217-4.8385Z"/>
        <polygon class="d"
                 points="491.412 127.541 492.155 124.808 497.018 117.959 499.332 119.602 496.621 123.421 501.317 121.012 510.773 127.725 503.884 127.231 501.168 125.302 491.412 127.541"/>
        <path class="w"
              d="M476.092,116.519l-1.2395,9.87,7.3484-1.7947h0a17.7576,17.7576,0,0,1,3.4346-12.8564l1.1956-1.569-2.9014-3.9217Z"/>
        <polygon class="d"
                 points="476.092 116.519 475.409 113.77 476.316 105.42 479.138 105.726 478.632 110.382 481.558 105.989 493.087 107.242 486.831 110.169 483.519 109.809 476.092 116.519"/>
        <path class="i"
              d="M469.3948,145.6269l1.1558-9.9857,2.0466-17.6822,12.9619.4883-1.6737,19.2087,4.5615-8.0524,12.7659,6.1835-17.19,32.13a8.95,8.95,0,0,1-7.8915,4.7279H421.987l-.5942-20.0491,5.8009-3.5664a13.1955,13.1955,0,0,1,11.0106-1.3015l5.0792,1.66Z"/>
        <path class="j"
              d="M483.8854,137.656l-6.998,11.57-4.6309,7.6567-30.239-1.7326-.8939-.7469a12.7265,12.7265,0,0,0-13.7671-1.6586"/>
        <path class="x"
              d="M378.44,169.0844l-2.97,16.7663,5.49,13.1639-7.2419,3.8362-8.5166-13.07a6.69,6.69,0,0,1-1.0285-4.5188l2.45-18.7559,3.7926-7.195Z"/>
        <path class="x"
              d="M384.66,146.3891h0a20.5494,20.5494,0,0,1,11.0515.4273l13.0006,4.18,12.68,1.5991.0168.0942a71.0524,71.0524,0,0,1,.6065,20.9362h0l-22.1111-1.6755-4.045,1.9753a6.5653,6.5653,0,0,1-6.3353-.3165l-6.6911-4.14-12.1846.45,1.564-10.3947a9.2724,9.2724,0,0,1,1.5074-3.8426l1.75-2.567,2.4351-2.71A13.1892,13.1892,0,0,1,384.66,146.3891Z"/>
        <path class="x"
              d="M386.44,158.7555l13.1021,16.29L391.78,197.2147l9.0318,1.8,11.5841-21.0319a5.1839,5.1839,0,0,0,.0076-4.9879l-13.49-24.6715"/>
        <line class="j" x1="400.8118" y1="171.2607" x2="399.5418" y2="175.0456"/>
        <line class="j" x1="388.2591" y1="161.0177" x2="399.5418" y2="175.0456"/>
        <line class="j" x1="375.4702" y1="185.8507" x2="374.4205" y2="183.4947"/>
        <path class="d"
              d="M372.7513,181.6765a6.0348,6.0348,0,0,1-1.2971-3.752,18.6066,18.6066,0,0,1,.6268-3.59,5.8388,5.8388,0,0,0-.158-3.5865c-.5641-1.233-1.7856-2.0344-2.5166-3.1764a5.8123,5.8123,0,0,1-.6572-4.2544,23.8164,23.8164,0,0,0,.6408-2.8446,4.6975,4.6975,0,0,0-.9678-3.2084L356.62,159.13a4.6975,4.6975,0,0,1,.9678,3.2084,23.797,23.797,0,0,1-.6408,2.8446,5.8123,5.8123,0,0,0,.6572,4.2544c.731,1.142,1.9525,1.9434,2.5166,3.1764a5.838,5.838,0,0,1,.158,3.5865,18.6066,18.6066,0,0,0-.6268,3.59,6.0348,6.0348,0,0,0,1.2971,3.752Z"/>
        <path class="x"
              d="M367.65,159.1861l8.3565,4.5381,6.8272,5.7454,3.7111,2.2962-1.3885-5.7409a33.6369,33.6369,0,0,0-4.2278-10.0123l-2.3093-3.6687-11.4022-1.3472Z"/>
        <path class="y"
              d="M367.828,151.008l-.91-.5866-1.32,2.047-1.4166,5.53,4.3537,1.6682,1.72.9341C371.7494,157.3943,370.8848,152.9791,367.828,151.008Z"/>
        <rect class="w" x="353.2708" y="145.0584" width="14.389" height="19.067" rx="7.1945"
              transform="translate(685.735 -64.5736) rotate(122.8151)"/>
        <circle cx="361.5875" cy="154.0519" r="0.4888"/>
        <circle cx="357.8555" cy="159.3111" r="0.4888"/>
        <path class="z" d="M355.1937,156.7892a2.7426,2.7426,0,0,0-.994,1.763"/>
        <path class="z" d="M358.6286,151.4624a2.7426,2.7426,0,0,0-.994,1.7629"/>
        <path class="z" d="M364.4929,157.9428a1.7025,1.7025,0,0,1-1.3319,2.0654"/>
        <path class="l" d="M359.1664,155.3322h0a.6279.6279,0,0,0-.5672.9017l.0069.0142"/>
        <circle class="l" cx="357.5279" cy="158.8343" r="2.754"/>
        <circle class="l" cx="361.0986" cy="153.2968" r="2.754"/>
        <line class="l" x1="361.2775" y1="150.5493" x2="363.2886" y2="147.2111"/>
        <path class="w"
              d="M362.3338,157.7985c-.2748.5424-.9067,1.1091-1.3219.92-.2977-.1358-2.0008-2.3306-2.349-2.605"/>
        <path class="z"
              d="M362.3338,157.7985c-.2748.5424-.9067,1.1091-1.3219.92-.2977-.1358-2.0008-2.3306-2.349-2.605"/>
        <path class="d"
              d="M376.86,147.4427a12.2362,12.2362,0,0,0-6.2473-4.9327c-2.5054-1.0239-4.77-2.3566-7.4083-2.7629a13.63,13.63,0,0,0-7.1369.6086,10.3676,10.3676,0,0,0-5.0533,4.26,12.8793,12.8793,0,0,0-1.8961,5.3365,5.9345,5.9345,0,0,0,.1369,1.9787,1.0563,1.0563,0,0,0,.407.7133l-.01-.0026s-.6627,3.0606,4.315,6.27l-1.5945-5.5309s4.6681-1.2664,6.6665-3.6894,3.8093-1.7008,5.7216-.7c1.5689.8212,3.3716,1.5611,2.8539,5.7064h0"/>
        <path class="w" d="M363.9832,145.9833a2.161,2.161,0,0,1,3.6288,2.34"/>
        <path class="d"
              d="M383.5157,170.5646a6.0346,6.0346,0,0,1-1.2971-3.752,18.6056,18.6056,0,0,1,.6268-3.59,5.8391,5.8391,0,0,0-.158-3.5866c-.5641-1.233-1.7856-2.0344-2.5166-3.1764-.9057-1.4148-.7387-3.1933-1.2608-4.7622a16.7057,16.7057,0,0,0-2.4971-4.8776,10.9024,10.9024,0,0,0-6.3806-4.204.4224.4224,0,0,0-.2157-.004c-.1316.0442-.1868.1962-.2263.3292a16.2322,16.2322,0,0,0-.86,3.33c-.1062,1.2119-.0679,2.431-.0749,3.6459a22.4819,22.4819,0,0,1-.9443,4.1541,5.8123,5.8123,0,0,0,.6572,4.2544c.731,1.142,1.9525,1.9434,2.5166,3.1764a5.8388,5.8388,0,0,1,.158,3.5865,18.608,18.608,0,0,0-.6268,3.59,6.0346,6.0346,0,0,0,1.2971,3.752Z"/>
        <path class="j" d="M370.4161,168.6782a6.0346,6.0346,0,0,0,1.2971,3.752l.5536-.0875"/>
        <line class="j" x1="412.3482" y1="172.8936" x2="401.1529" y2="152.3439"/>
        <path class="d"
              d="M418.226,174.7193c-.9319,0-1.2243-1.0538-1.3228-1.4805l.8755-.1148a55.2687,55.2687,0,0,0,.6773-10.4384c0-6.064-.4449-10.0964-.766-10.676a.6417.6417,0,0,0,.536.2637.6865.6865,0,0,0,.462-.175l-1.4984-.52c.2134-.6143.5622-.9263,1.0364-.9263.6473,0,1.8515,0,1.8515,12.0338S418.8733,174.7193,418.226,174.7193Z"/>
        <path class="d"
              d="M417.7437,152.1356c-.0967-.2648-.1341-.0169-.1341-.0169l-.5428-.0684s.0346-.1795.1228-.4722c.0964-.32.9943-.1157.9943-.1157l.7415.2883-.0675.4206-.5055.4718-.3319-.1348Z"/>
        <polygon class="x" points="416.903 173.239 417.738 173.302 417.779 173.124 417.084 173.139 416.903 173.239"/>
        <path class="d" d="M417.8552,150.7263c-.0176.0079-.4284.076-.9752,1.3l.73.092.1341.0169Z"/>
        <line class="aa" x1="418.285" y1="151.4624" x2="418.285"/>
        <polygon class="q"
                 points="96.902 390.058 100.263 375.782 92.898 375.034 90.558 389.952 94.08 392.601 96.902 390.058"/>
        <path class="d"
              d="M90.5584,389.9521l-.3706,7.8776,16.53-.0215a.9334.9334,0,0,0,.47-1.7392l-10.2854-6.0115-2.8219,2.544Z"/>
        <line class="l" x1="99.2653" y1="391.8356" x2="98.2629" y2="393.9715"/>
        <line class="l" x1="100.4992" y1="392.5458" x2="99.5798" y2="394.5048"/>
        <line class="l" x1="101.7331" y1="393.256" x2="100.8968" y2="395.0381"/>
        <line class="l" x1="102.9671" y1="393.9662" x2="102.2137" y2="395.5714"/>
        <path class="i"
              d="M98.2629,355.0536l-28.2607-33.999,24.8343-4.2012,18.0974,35.363a5.4,5.4,0,0,1,.0836,4.75L99.2653,386.3427l-9.5365-.8534L92.99,368.9536A42.5172,42.5172,0,0,1,96.8442,357.83Z"/>
        <polygon class="w"
                 points="50.351 403.07 55.476 389.74 46.898 393.249 44.403 400.865 46.844 404.533 50.351 403.07"/>
        <path class="d"
              d="M44.4026,400.8647l-2.9653,7.3075,15.5987,5.4685a.9334.9334,0,0,0,1.0206-1.4845h0L50.351,403.07l-3.5065,1.4626Z"/>
        <line class="l" x1="52.1108" y1="405.1895" x2="50.456" y2="406.8714"/>
        <line class="l" x1="53.0389" y1="406.2691" x2="51.5212" y2="407.8117"/>
        <line class="l" x1="53.967" y1="407.3488" x2="52.5863" y2="408.7521"/>
        <line class="l" x1="54.8951" y1="408.4284" x2="53.6514" y2="409.6924"/>
        <path class="i"
              d="M80.28,332.4508l-9.3794,27.1411-17.0679,38.93-9.6947-2.1207,5.4607-24.963a40.2777,40.2777,0,0,1,7.6162-16.2008l.8592-1.099,2.0978-35.4963H82.3939Z"/>
        <line class="j" x1="80.0438" y1="333.1351" x2="83.3022" y2="323.7061"/>
        <path class="x"
              d="M79.5958,264.8219l-9.7185,2.8963a21.9039,21.9039,0,0,0-9.3561,5.6277L41.362,292.8147a5.9732,5.9732,0,0,0,.99,9.19L59.3788,313.13l4.8628-8.0457-9.1887-7.613,6.5983-6.7415-1.9519,35.914H97.4528l2.8105-37.0625,14.0155,7.2861a6.4345,6.4345,0,0,0,8.3318-2.1548l12.9887-19.6009-8.3274-4.4062L116.08,281.9379l-12.1974-9.13a33.6723,33.6723,0,0,0-5.8214-3.5011l-8.9451-4.2156Z"/>
        <path class="q" d="M64.2416,305.084l4.814,3.8475s-1.001,5.1486-4.3393,6.8722l-3.1779-6.2472Z"/>
        <polygon class="i"
                 points="91.474 266.203 83.956 289.082 75.884 265.928 79.596 264.822 89.116 265.092 91.474 266.203"/>
        <line class="j" x1="83.9558" y1="289.0815" x2="81.9711" y2="326.6435"/>
        <polyline class="j" points="92.234 267.598 94.376 271.529 85.206 286.975"/>
        <path class="q"
              d="M89.1145,266.43h0a6.5329,6.5329,0,0,1-6.8281.9258l-3.6059-1.6134L80.6257,250.11l8.4673-.0112Z"/>
        <rect class="q" x="78.2437" y="241.3033" width="13.7185" height="18.6617" rx="6.8593"
              transform="matrix(0.8642, -0.5032, 0.5032, 0.8642, -114.556, 76.8634)"/>
        <circle cx="85.5215" cy="249.9475" r="0.4185"/>
        <circle cx="90.337" cy="247.1179" r="0.4185"/>
        <path class="z" d="M82.3939,249.0838a2.2243,2.2243,0,0,1,1.738-1.1617"/>
        <path class="z" d="M88.5767,254.4979a1.5055,1.5055,0,0,0,1.878-1.0935"/>
        <path class="l" d="M86.5679,249.2194h0a.5551.5551,0,0,1,.8192-.4649l.0123.0067"/>
        <circle class="l" cx="89.7271" cy="247.9127" r="2.4351"/>
        <circle class="l" cx="84.6923" cy="250.8443" r="2.4351"/>
        <line class="l" x1="82.2535" y1="250.8947" x2="78.9628" y2="252.6891"/>
        <path class="q" d="M78.0238,253.3575a2.0738,2.0738,0,0,0,2.085,3.5808l1.9021-3.6584Z"/>
        <path class="z" d="M88.44,252.7759c.5755-.1841,1.231-.7148,1.1107-1.1519-.0863-.3136-1.9714-2.33-2.1857-2.715"/>
        <path class="z" d="M89.5253,244.9314a2.2244,2.2244,0,0,0-1.8683.9382"/>
        <path class="d"
              d="M75.3946,251.0031s1.5186-4.0165,3.88-4.3327c3.1939-.4276,6.624-1.3367,8.5-4.1368a5.5173,5.5173,0,0,0-.0777-6.1811,2.8679,2.8679,0,0,0-2.0623-1.0943,1.9183,1.9183,0,0,0-1.8724,1.2348A5.0563,5.0563,0,0,0,77.8,239.1409a3.8644,3.8644,0,0,1-.7818,1.4077,4.7772,4.7772,0,0,1-.6607.428,4.5811,4.5811,0,0,0-1.2731,1.2733A7.472,7.472,0,0,0,75.3946,251.0031Z"/>
        <path class="d"
              d="M79.372,246.1709a1.0625,1.0625,0,0,0-.2861.6387,3.621,3.621,0,0,0,.0968,1.4992,5.1431,5.1431,0,0,1,.2644,2.2943c-.1561.6848-.7848,1.4209-.4405,2.14q.1681.3513.37.6851a.87.87,0,0,1,.1923.685.7478.7478,0,0,1-.309.3466c-.5039.3537-1.1837-.3164-1.67-.5393a6.7052,6.7052,0,0,1-1.6261-.8157,5.78,5.78,0,0,1-1.0892-1.2281,4.6933,4.6933,0,0,1-.52-3.9522"/>
        <polygon class="g" points="69.662 288.451 68.589 282.976 77.967 282.963 79.04 288.439 69.662 288.451"/>
        <line class="ab" x1="70.9374" y1="285.1274" x2="77.1327" y2="285.1193"/>
        <line class="ab" x1="71.3942" y1="286.2941" x2="74.4919" y2="286.29"/>
        <path class="ac"
              d="M82.8687,258.6789a6.8723,6.8723,0,0,0,6.2381,1.894l-.002-1.5261A6.8586,6.8586,0,0,1,82.8687,258.6789Z"/>
        <path class="ad"
              d="M78.866,258.3072a1.7758,1.7758,0,0,0,1.5825.7978q.0579-.576.0628-1.1556A1.7482,1.7482,0,0,0,80.1,256.59a1.4537,1.4537,0,0,0-.8376-.3071C77.9814,256.1589,78.3927,257.6228,78.866,258.3072Z"/>
        <line class="j" x1="100.9031" y1="281.1438" x2="100.2633" y2="289.581"/>
        <line class="j" x1="111.3892" y1="287.2148" x2="116.0798" y2="281.9379"/>
        <line class="j" x1="50.8613" y1="293.9982" x2="55.0529" y2="297.471"/>
        <path class="j" d="M69.2056,307.4166s-.0189,9.4368-8.9786,9.4368"/>
        <line class="j" x1="64.2416" y1="305.084" x2="61.0182" y2="302.4133"/>
        <line class="j" x1="61.6512" y1="290.7295" x2="62.0457" y2="282.3165"/>
        <polyline class="j" points="75.234 267.329 72.943 272.269 82.127 286.29"/>
        <path class="x" d="M104.16,398.2581H50.8421a.2074.2074,0,0,1,0-.4148H104.16a.2074.2074,0,0,1,0,.4148Z"/>
        <polygon class="q"
                 points="50.351 403.07 55.476 389.74 46.898 393.249 44.403 400.865 46.844 404.533 50.351 403.07"/>
        <path class="d"
              d="M44.4026,400.8647l-2.9653,7.3075,15.5987,5.4685a.9334.9334,0,0,0,1.0206-1.4845h0L50.351,403.07l-3.5065,1.4626Z"/>
        <line class="l" x1="52.1108" y1="405.1895" x2="50.456" y2="406.8714"/>
        <line class="l" x1="53.0389" y1="406.2691" x2="51.5212" y2="407.8117"/>
        <line class="l" x1="53.967" y1="407.3488" x2="52.5863" y2="408.7521"/>
        <line class="l" x1="54.8951" y1="408.4284" x2="53.6514" y2="409.6924"/>
        <polyline class="i" points="58.084 388.827 53.833 398.522 44.138 396.401 46.319 386.432"/>
        <line class="j" x1="98.2629" y1="355.0536" x2="100.8795" y2="358.4012"/>
        <path class="q"
              d="M127.2719,270.7052l.1743-.2057,4.2117-5.895s5.9148-2.8888,6.4665-3.64.78,2.1939-.7664,3.1134-1.7587,1.3619-1.7587,1.3619l-2.1775,8.5194Z"/>
        <path class="j" d="M135.5993,265.44c-.7239.9611-1.5694,1.9945-1.5068,2.9653a3.5987,3.5987,0,0,1-2.9437,3.1"/>
        <path class="d"
              d="M495.0929,328.6921s.9474,1.1324,1.5961,1.7621c2.9409-1.8947,6.7071-4.6847,6.7071-4.6847a32.3222,32.3222,0,0,1-8.6992-11.476c-3.6232-7.4156-7.838-5.4-7.838-5.4-3.2429-1.1352-7.7968,1.183-9.6216,3.489a9.301,9.301,0,0,0-2.0647,5.558s.3087,4.5224.4041,6.3826-1.337,9.6226-1.337,9.6226,1.3344.1432,3.2329.2931l.691-1.8028.36,1.8816c3.7165.2651,8.8169.4746,10.904-.1572a29.7062,29.7062,0,0,0,6.4643-3.2033Z"/>
        <circle class="d" cx="472.0161" cy="353.8665" r="4.4736"/>
        <path class="x"
              d="M502.4654,371.4475l-3.8283-9.2537v8.3522l1.1347,1.8635a60.58,60.58,0,0,1,7.8644,20.695h0l-33.66.7235,2.0857-22.1083-3.2232-9.526-9.0839,5.7548a4.3913,4.3913,0,0,1-5.5617-.7147L443.6243,351.61l6.29-5.0615,10.9482,9.3751,9.6286-12.6772a12.0148,12.0148,0,0,1,6.0051-4.2073l6.7958-2.11h0l8.69.3318L501.33,342.17a10.3245,10.3245,0,0,1,4.98,5.8342l6.9767,20.638,14.5343,12.4135-4.3556,5.9393-17.232-11.043A9.7994,9.7994,0,0,1,502.4654,371.4475Z"/>
        <polygon class="k"
                 points="492.458 338.658 491.651 324.042 483.079 324.042 481.883 337.455 482.079 352.051 492.458 338.658"/>
        <path class="ae"
              d="M489.4083,324.0416h.9872l.175.8371a7.0275,7.0275,0,0,1-5.44,8.3174h0c-.2118.0443-.4232.077-.634.1016-.345.0495-1.75.1129-2.2579.167l.8407-9.4231Z"/>
        <rect class="k" x="476.2996" y="313.4221" width="14.0552" height="18.6247" rx="7.0276"
              transform="translate(1022.4872 539.6887) rotate(168.1871)"/>
        <circle cx="483.0792" cy="322.1931" r="0.4623"/>
        <circle cx="477.2284" cy="323.391" r="0.4623"/>
        <path class="z" d="M477.9544,320.6242a2.6829,2.6829,0,0,0-1.4463.5128"/>
        <path class="z" d="M484.033,319.41a2.68,2.68,0,0,0-1.9077.5187"/>
        <path class="z" d="M483.7615,327.8337a1.6631,1.6631,0,0,1-2.35.4914"/>
        <path class="j"
              d="M473.0958,348.915l-1.7528,3.5875a7.2749,7.2749,0,0,0-.2663,5.8951,8.7689,8.7689,0,0,0,.7564,1.49,7.6957,7.6957,0,0,1,.5059.9161l.5,1.39"/>
        <polygon class="g" points="491.521 357.652 493.11 353.457 485.926 353.457 484.337 357.652 491.521 357.652"/>
        <line class="ab" x1="491.0094" y1="355.1073" x2="486.2634" y2="355.1073"/>
        <line class="ab" x1="490.4958" y1="356.0015" x2="488.1228" y2="356.0015"/>
        <line class="af" x1="486.0056" y1="320.9994" x2="490.5722" y2="320.0798"/>
        <path class="j"
              d="M482.0788,352.0512c-.831,2.4448-1.6926,4.8479-1.2913,7.5419a23.0171,23.0171,0,0,1,.7074,4.5757c-.0808,1.7907-.2186,3.5778-.294,5.37-.6214,14.7741.8779,23.4666.8779,23.4666"/>
        <circle class="k" cx="491.1706" cy="321.934" r="2.1241"/>
        <line class="j" x1="465.0567" y1="359.5154" x2="460.8624" y2="355.9238"/>
        <path class="k"
              d="M446.0789,342.7087l3.8353,3.84-4.5427,3.6556-3.1224-4.44a5.09,5.09,0,0,1-2.4773-.06c-1.3935-.3693-2.3026-.2462-3.3287-1.8469-.22-.3424-2.2178-3.3942-1.8024-3.7011a.1414.1414,0,0,1,.1166-.0089c.7114.1687,1.167,1.1485,1.5627,1.6991.9434,1.3125.821.2886.8208.2873-.0375-.313-.9138-.9818-1.1319-1.24a6.5231,6.5231,0,0,1-1.0012-1.5089c-.0843-.1876-.5307-1.1329-.3644-1.3314.4131-.4912,2.3125,1.5435,2.5694,1.7465a9.6628,9.6628,0,0,0,1.6519,1.0617l3.8988.3284Z"/>
        <path class="k"
              d="M446.0789,342.7087c-.7915-1.498-2.1975-1.6211-3.2182-2.4214s-2.4982-2.5856-2.4366-1.6622.3694,1.7319.9234,1.9125,1.5132,3.074,1.5132,3.074l-2.4385.554,6.4043.4925Z"/>
        <polyline class="j" points="483.327 352.051 492.458 345.248 492.458 339.536"/>
        <polyline class="j" points="481.329 338.402 478.634 343.01 481.412 351.192"/>
        <path class="d"
              d="M476.8959,317.6984l.9361,1.8861,6.3912-1.3367V316.687l.7455,1.4049,4.8012-1.0042-1.2589-6.0188-10.27,2.148a4.8664,4.8664,0,0,0-3.7672,5.76l.2627,1.2555,2.24-.4684Z"/>
        <path class="l" d="M480.5447,322.5142h0a.5551.5551,0,0,1,.9263-.1708l.01.01"/>
        <circle class="l" cx="483.9577" cy="322.3147" r="2.4351"/>
        <circle class="l" cx="478.2403" cy="323.435" r="2.4351"/>
        <path class="k" d="M482.38,326.2337c-.5656.1812-1.3932.1308-1.5465-.2877-.11-.3.2473-2.99.199-3.4205"/>
        <path class="z" d="M482.38,326.2337c-.5656.1812-1.3932.1308-1.5465-.2877-.11-.3.2473-2.99.199-3.4205"/>
        <circle class="d" cx="439.7718" cy="338.4024" r="5.1434"/>
        <line class="j" x1="513.2866" y1="368.6423" x2="514.1652" y2="372.4498"/>
        <line class="j" x1="513.3441" y1="419.9304" x2="514.2248" y2="423.5082"/>
        <line class="j" x1="495.6304" y1="353.7019" x2="498.6371" y2="362.1938"/>
        <polygon class="k"
                 points="545.122 432.848 556.471 432.848 558.123 429.668 550.796 427.543 545.942 426.488 545.122 432.848"/>
        <polygon class="d"
                 points="547.572 426.842 553.068 425.552 567.606 432.731 556.471 432.848 555.868 429.668 547.572 426.842"/>
        <ellipse class="h" cx="545.1218" cy="463.3989" rx="31.0112" ry="5.4011"/>
        <circle class="d" cx="534.7524" cy="458.2142" r="5.1847"/>
        <circle class="d" cx="545.1218" cy="458.2142" r="5.1847"/>
        <circle class="d" cx="539.9371" cy="449.1825" r="5.1847"/>
        <circle class="d" cx="550.3065" cy="449.1825" r="5.1847"/>
        <circle class="d" cx="545.1218" cy="440.1105" r="5.1847"/>
        <circle class="d" cx="555.4912" cy="458.2142" r="5.1847"/>
        <line class="l" x1="514.9762" y1="440.1105" x2="575.2674" y2="440.1105"/>
        <line class="l" x1="519.1595" y1="447.8733" x2="571.0841" y2="447.8733"/>
        <line class="l" x1="523.3428" y1="455.6361" x2="566.9008" y2="455.6361"/>
        <line class="l" x1="527.5261" y1="463.3989" x2="562.7174" y2="463.3989"/>
        <line class="l" x1="514.9762" y1="440.1105" x2="527.5261" y2="463.3989"/>
        <line class="l" x1="530.049" y1="440.1105" x2="536.324" y2="463.3989"/>
        <line class="l" x1="545.1218" y1="440.1105" x2="545.1218" y2="463.3989"/>
        <line class="l" x1="560.1946" y1="440.1105" x2="553.9196" y2="463.3989"/>
        <line class="l" x1="575.2674" y1="440.1105" x2="562.7174" y2="463.3989"/>
        <polygon class="l"
                 points="545.122 440.111 514.976 440.111 527.526 463.399 545.122 463.399 562.717 463.399 575.267 440.111 545.122 440.111"/>
        <path class="l"
              d="M545.1218,415.9215h0a19.4777,19.4777,0,0,1,19.4777,19.4777v4.7114a0,0,0,0,1,0,0H525.6441a0,0,0,0,1,0,0v-4.7114A19.4777,19.4777,0,0,1,545.1218,415.9215Z"/>
        <ellipse class="h" cx="50.6347" cy="481.5448" rx="32.0087" ry="5.4011"/>
        <path class="d"
              d="M68.2852,457.2922c.0669.9261,1.3844,3.0185,3.0794,2.7865a10.9892,10.9892,0,0,0,2.6491-.6476s3.434,2.237,4.1012,3.3555a4.833,4.833,0,0,0,4.0816,1.8157l-1.4717-3.6533-9.2425-5.8153Z"/>
        <path class="d"
              d="M23.2685,469.9294c.72.2122,4.7515,1.6433,6.4083-1.3958l.7025-3.3333,1.1771-1.12a3.6378,3.6378,0,0,0,3.9569-1.0578,6.5317,6.5317,0,0,0,1.4968-3.591l-4.2637.4387L26.624,464.54Z"/>
        <path class="ag"
              d="M51.1136,466.6328a57.5775,57.5775,0,0,1,5.3375-12.9513c3.6106-6.2008,11.5383-9.0266,17.4252-7.1427s10.2825,9.1051,11.1459,11.5383.314,5.1805-.5494,6.0439a2.3833,2.3833,0,0,1-3.3341-.2208c-.2089-.3106-.3189-.6773-.51-.999-1.4889-2.5042-3.6764.2669-5.5176.3061-4.0683.0865-.2328-5.91-3.5894-5.7581a9.0617,9.0617,0,0,0-5.3375,2.1193c-1.7268,1.4128-3.7676-.314-3.9246-2.4333-.33-4.4554-4.2041-.9124-5.8319.6357a8.4565,8.4565,0,0,0-2.0173,2.74c-.785,1.7268-2.59,6.1224-2.59,6.1224Z"/>
        <path class="ah"
              d="M51.1136,467.4962V455.8008c0-5.3374-2.1193-19.3876-10.2825-25.353-2.67-1.9514-5.5659-4.105-8.7685-5.0995-1.3708-.4257-4.9254-.9893-4.7588,1.3041C27.4162,428.2,29.44,428.32,30.42,428.951c2.054,1.3212-1.022,2.7993-1.8532,3.4166a2.5876,2.5876,0,0,0-.9247,2.7052c.4327,1.5447,2.2027,2.3119,3.8027,2.4272s3.2321-.2031,4.8007.133a1.758,1.758,0,0,1,.9472.4517,1.5432,1.5432,0,0,1-.1729,1.9585c-.6479.7743-1.8634,1.0591-2.3939,1.8607a2.6842,2.6842,0,0,0,.6225,3.1924c1.05.89,2.5736.82,3.9487.8876a5.0284,5.0284,0,0,1,2.87.9034c1.1348.9558.2691,1.7932-.0728,2.9152a1.93,1.93,0,0,0,.4318,1.7956,2.5723,2.5723,0,0,0,1.6991.8125c.5079.0451,1.0218-.0365,1.5283.0216a1.4581,1.4581,0,0,1,1.2324.7758,2.6167,2.6167,0,0,1,.12.645c.1817,1.3763,1.9625,1.7336,2.567,2.9833.6763,1.3978.6938,11.3663.6938,11.3663Z"/>
        <path class="ai"
              d="M48.2094,466.6328s-1.4914-5.9654-3.2182-8.87-2.6686-4.2383-4.0027-4.0031c-1.2119.2136-2.12.6885-2.2683,2.1482-.134,1.3156.1541,2.876-.4688,4.0961-.702,1.375-2.85,1.532-4.2281,1.6464-1.9536.1623-2.6267.827-2.441,2.9182a4.6629,4.6629,0,0,1-.255,2.7985,2.7525,2.7525,0,0,1-1.6505,1.1662,8.1736,8.1736,0,0,1-2.053.2227l-1.8669.0439c-1.9576.046-1.4541,1.4929-2.47,2.6469a1.9282,1.9282,0,0,1-2.2485.3426c-3.503-1.7222-2.1827-7.1246-1.1279-9.9485,1.47-3.9353,5.0811-6.8439,8.7971-8.6623a21.0619,21.0619,0,0,1,2.1548-.91c5.259-1.8838,10.6749-1.02,12.7157,1.57s4.6311,8.9481,5.3375,12.7943Z"/>
        <path class="c" d="M21.4435,469.9294S17.6216,454.6783,39.57,451.5857"/>
        <path class="c" d="M28.4293,464.592s-2.78-4.4407-4.5754-5.4115c0,0-3.7338,2.7857-4.3692,3.9212"/>
        <path class="c" d="M34.4732,457.2922s-2.6235-2.6664-3.5488-3.4132a10.9651,10.9651,0,0,0-3.63.05"/>
        <path class="c" d="M29.2112,425.0056s10.4425,3.7939,15.23,14.2334,5.3375,16.28,5.3375,16.28"/>
        <path class="c" d="M32.9034,433.1166s7.2353.6767,8.68,1.3588l1.1853-2.3544"/>
        <path class="c" d="M38.0054,442.6926a78.0087,78.0087,0,0,1,8.2945.8737l1.25-4.1564"/>
        <path class="c" d="M45.8546,449.7569s2.66.1326,2.7469.4406c0,0,1.5013-2.8416,1.3124-3.6158"/>
        <path class="c" d="M58.0209,453.7455s7.5353-5.7408,15.5415-3.548S83.8068,462.84,83.7866,464.54"/>
        <polyline class="c" points="66.891 456.298 66.891 449.959 69.873 447.245"/>
        <polyline class="c" points="75.76 457.292 75.76 451.069 78.115 450.197"/>
        <polyline class="c" points="81.49 462.394 82.158 458.565 84.865 459.181"/>
        <path class="d"
              d="M37.01,465.827H63.5253a0,0,0,0,1,0,0v10.2149a5.5028,5.5028,0,0,1-5.5028,5.5028h-15.51a5.5028,5.5028,0,0,1-5.5028-5.5028V465.827A0,0,0,0,1,37.01,465.827Z"/>
        <polygon class="aj" points="596.639 600.154 533.224 518.025 63.416 518.025 0 600.154 596.639 600.154"/>
    </g>
</svg>
